<?xml version="1.0" standalone="no"?>
<!DOCTYPE svg PUBLIC "-//W3C//DTD SVG 20010904//EN"
 "http://www.w3.org/TR/2001/REC-SVG-20010904/DTD/svg10.dtd">
<svg version="1.0" xmlns="http://www.w3.org/2000/svg"
 width="500.000000pt" height="500.000000pt" viewBox="0 0 500.000000 500.000000"
 preserveAspectRatio="xMidYMid meet">
<metadata>
Created by potrace 1.14, written by Peter Selinger 2001-2017
</metadata>
<g transform="translate(0.000000,500.000000) scale(0.100000,-0.100000)"
fill="#000000" stroke="none">
<path d="M2368 4205 c-2 -1 -28 -5 -58 -8 -131 -14 -329 -63 -347 -85 -7 -9
-11 -17 -10 -19 2 -1 43 8 93 21 181 49 274 61 464 61 237 0 391 -31 630 -125
410 -163 755 -516 921 -942 19 -49 37 -88 42 -88 36 0 -73 256 -176 410 -136
204 -287 357 -482 489 -217 146 -464 238 -740 277 -47 7 -331 14 -337 9z"/>
<path d="M2540 2891 l0 -321 63 0 63 0 -2 180 -1 181 21 -18 c11 -10 23 -20
26 -23 3 -3 25 -23 50 -44 25 -22 88 -78 140 -126 52 -47 116 -105 141 -128
25 -23 49 -42 53 -42 3 0 5 143 5 318 l-1 319 -58 1 c-37 0 -60 -4 -63 -11 -2
-7 -3 -90 -1 -185 l2 -173 -21 18 c-31 26 -35 30 -142 128 -119 109 -147 135
-205 189 -25 23 -51 46 -57 50 -10 6 -13 -60 -13 -313z"/>
<path d="M2140 3189 c-143 -16 -242 -108 -268 -248 -38 -209 82 -364 292 -375
83 -5 234 39 237 68 4 44 0 248 -4 253 -6 5 -87 7 -190 4 l-38 -1 3 -57 3 -58
53 0 52 1 0 -37 c0 -21 -5 -41 -11 -45 -24 -15 -137 -6 -176 14 -91 47 -112
105 -92 251 1 7 18 31 38 51 56 59 153 76 247 44 25 -8 47 -14 48 -12 7 8 36
90 36 99 0 28 -141 58 -230 48z"/>
<path d="M1860 2142 l0 -322 59 0 59 0 -1 125 c0 69 2 127 5 130 3 3 46 -50
95 -119 l90 -125 20 22 c11 12 55 73 98 135 43 61 81 112 84 112 3 0 5 -63 3
-140 l-3 -140 63 0 63 0 0 320 c0 242 -3 316 -11 307 -7 -7 -78 -104 -159
-217 -81 -113 -149 -206 -150 -208 -1 -1 -55 73 -120 165 -66 92 -136 192
-157 222 l-38 54 0 -321z"/>
<path d="M2656 2421 c-2 -9 -3 -146 -2 -306 l1 -290 150 0 c135 0 155 3 201
23 129 58 197 201 164 343 -18 78 -43 121 -95 167 -67 59 -125 75 -282 78
-116 2 -133 0 -137 -15z m319 -132 c100 -68 101 -256 1 -318 -37 -23 -151 -42
-183 -30 -17 6 -18 19 -17 185 1 99 3 183 3 188 1 5 37 7 80 4 63 -4 87 -10
116 -29z"/>
<path d="M891 1971 c-12 -8 -8 -24 19 -93 171 -427 499 -766 914 -945 96 -41
170 -65 286 -92 86 -20 106 -24 215 -37 72 -10 279 -10 355 -1 160 19 354 68
364 92 7 19 3 18 -59 -1 -44 -13 -123 -31 -210 -49 -108 -21 -352 -27 -474
-12 -484 60 -927 332 -1198 737 -70 105 -172 312 -195 397 -2 8 -8 9 -17 4z"/>
</g>
</svg>
