<svg width="326" height="343" viewBox="0 0 326 343" fill="none" xmlns="http://www.w3.org/2000/svg">
<mask id="mask0_3_3" style="mask-type:luminance" maskUnits="userSpaceOnUse" x="0" y="0" width="326" height="343">
<path d="M0 0H325.333V342.667H0V0Z" fill="white"/>
</mask>
<g mask="url(#mask0_3_3)">
<mask id="mask1_3_3" style="mask-type:luminance" maskUnits="userSpaceOnUse" x="-16" y="-29" width="358" height="401">
<path d="M-15.5312 -4.65105L314.599 -28.6458L341.932 347.359L11.8021 371.359L-15.5312 -4.65105Z" fill="white"/>
</mask>
<g mask="url(#mask1_3_3)">
<mask id="mask2_3_3" style="mask-type:luminance" maskUnits="userSpaceOnUse" x="-16" y="-29" width="358" height="401">
<path d="M-15.5312 -4.65105L314.599 -28.6458L341.932 347.359L11.8021 371.359L-15.5312 -4.65105Z" fill="white"/>
</mask>
<g mask="url(#mask2_3_3)">
<path fill-rule="evenodd" clip-rule="evenodd" d="M109.682 9.05206C112.307 8.18748 114.953 7.3854 117.615 6.64581C120.281 5.91144 122.964 5.23956 125.656 4.63019C128.354 4.02602 131.068 3.48436 133.786 3.0104C136.51 2.53123 139.245 2.12498 141.99 1.78123C144.729 1.44269 147.479 1.16665 150.24 0.958313C152.995 0.74998 155.755 0.609354 158.516 0.53123C161.281 0.458313 164.042 0.453106 166.807 0.510397C169.573 0.572898 172.333 0.697897 175.089 0.895813C177.849 1.08852 180.599 1.34894 183.344 1.67706C186.089 2.00519 188.823 2.40102 191.547 2.86456C194.276 3.3229 196.99 3.85415 199.688 4.4479C202.385 5.04165 205.073 5.6979 207.74 6.42186C210.406 7.14581 213.057 7.93227 215.688 8.78644C218.318 9.64061 220.927 10.5573 223.51 11.5364C226.094 12.5156 228.656 13.5573 231.193 14.6614C233.724 15.7656 236.234 16.9271 238.708 18.1562C241.188 19.3802 243.635 20.6666 246.052 22.0104C248.469 23.3541 250.849 24.7604 253.198 26.2187C255.547 27.6823 257.854 29.1979 260.13 30.7708C262.406 32.3437 264.641 33.9687 266.833 35.651C269.031 37.3333 271.182 39.0677 273.297 40.8541C275.406 42.6406 277.474 44.4791 279.495 46.3646C281.516 48.25 283.49 50.1875 285.417 52.1719C287.349 54.151 289.224 56.1823 291.057 58.2552C292.885 60.3281 294.661 62.4479 296.391 64.6094C298.115 66.7708 299.792 68.9687 301.411 71.2135C303.031 73.4531 304.594 75.7344 306.104 78.0521C307.615 80.3698 309.063 82.7239 310.458 85.1146C311.854 87.5052 313.188 89.9219 314.469 92.3802C315.745 94.8333 316.964 97.3125 318.12 99.8281C319.276 102.339 320.37 104.88 321.406 107.448C322.438 110.016 323.406 112.604 324.318 115.219C324.651 116.182 324.984 117.167 325.307 118.167L322.776 119.266C322.432 118.214 322.078 117.167 321.714 116.115C320.818 113.526 319.854 110.958 318.828 108.417C317.802 105.875 316.719 103.354 315.573 100.865C314.422 98.375 313.214 95.9166 311.948 93.4844C310.677 91.0521 309.354 88.6562 307.964 86.2916C306.578 83.9219 305.141 81.5937 303.641 79.2969C302.141 77 300.583 74.7448 298.974 72.526C297.365 70.3073 295.703 68.1302 293.984 65.9896C292.271 63.8541 290.5 61.7604 288.682 59.7083C286.865 57.6562 284.995 55.651 283.078 53.6927C281.161 51.7344 279.198 49.8229 277.188 47.9583C275.177 46.0937 273.12 44.2812 271.021 42.5208C268.922 40.7604 266.781 39.0469 264.599 37.3906C262.417 35.7344 260.193 34.1302 257.932 32.5781C255.672 31.0312 253.375 29.5416 251.042 28.1041C248.703 26.6666 246.339 25.2916 243.938 23.9687C241.536 22.651 239.104 21.3906 236.641 20.1875C234.177 18.9844 231.682 17.8489 229.167 16.7708C226.646 15.6875 224.104 14.6719 221.531 13.7187C218.964 12.7656 216.375 11.875 213.76 11.0469C211.151 10.2187 208.521 9.45831 205.87 8.7604C203.219 8.06248 200.552 7.42706 197.875 6.85936C195.193 6.29165 192.5 5.79165 189.797 5.35415C187.089 4.91665 184.375 4.55206 181.651 4.24998C178.932 3.94269 176.203 3.70831 173.469 3.54165C170.734 3.36977 167.995 3.27081 165.255 3.23436C162.516 3.1979 159.776 3.23435 157.036 3.33331C154.302 3.43227 151.568 3.59894 148.839 3.82811C146.109 4.06248 143.385 4.36456 140.672 4.72915C137.953 5.09894 135.25 5.53123 132.557 6.03123C129.865 6.53123 127.182 7.09373 124.516 7.72394C121.849 8.35415 119.198 9.05206 116.568 9.81248C113.938 10.5729 111.323 11.3958 108.734 12.2864C109.068 11.2135 109.391 10.1458 109.682 9.05727V9.05206ZM3.69271 223.802C3.97917 224.667 4.26042 225.521 4.5625 226.38C5.46354 228.979 6.42708 231.552 7.45313 234.099C8.48437 236.651 9.57292 239.172 10.724 241.667C11.875 244.167 13.0885 246.63 14.3594 249.068C15.6302 251.505 16.9635 253.906 18.3542 256.276C19.7448 258.651 21.1927 260.984 22.6979 263.286C24.2031 265.583 25.7604 267.849 27.375 270.068C28.9948 272.292 30.6615 274.474 32.3854 276.62C34.1094 278.76 35.8802 280.854 37.7083 282.911C39.5313 284.964 41.4063 286.974 43.3333 288.937C45.2552 290.896 47.2292 292.812 49.2448 294.677C51.2604 296.542 53.3229 298.359 55.4323 300.12C57.5365 301.885 59.6875 303.594 61.8802 305.255C64.0677 306.911 66.2969 308.516 68.5677 310.068C70.8385 311.615 73.1458 313.109 75.4844 314.542C77.8281 315.979 80.2031 317.354 82.6146 318.677C85.026 319.995 87.4688 321.255 89.9375 322.453C92.4115 323.651 94.9115 324.786 97.4375 325.865C99.9635 326.943 102.516 327.953 105.094 328.906C107.672 329.854 110.271 330.745 112.891 331.568C115.51 332.391 118.151 333.151 120.813 333.844C123.469 334.536 126.141 335.161 128.828 335.724C131.521 336.286 134.219 336.786 136.932 337.214C139.646 337.646 142.37 338.005 145.099 338.302C147.828 338.599 150.568 338.828 153.307 338.99C156.052 339.151 158.792 339.245 161.542 339.271C164.286 339.297 167.031 339.255 169.776 339.146C172.521 339.042 175.26 338.865 178 338.62C180.734 338.38 183.464 338.068 186.182 337.693C188.901 337.312 191.615 336.87 194.313 336.359C197.01 335.849 199.698 335.276 202.365 334.635C205.036 333.99 207.693 333.286 210.328 332.51C212.964 331.74 215.578 330.901 218.172 330.005C217.823 331.073 217.484 332.151 217.177 333.24C214.552 334.12 211.901 334.932 209.234 335.677C206.568 336.427 203.88 337.109 201.182 337.729C198.479 338.344 195.766 338.896 193.036 339.38C190.313 339.865 187.573 340.286 184.823 340.635C182.078 340.99 179.323 341.271 176.557 341.49C173.797 341.708 171.031 341.859 168.26 341.937C165.49 342.021 162.724 342.036 159.953 341.984C157.182 341.932 154.411 341.812 151.651 341.625C148.885 341.437 146.125 341.182 143.375 340.859C140.625 340.536 137.88 340.151 135.146 339.693C132.417 339.24 129.693 338.719 126.984 338.13C124.276 337.542 121.589 336.885 118.911 336.167C116.234 335.448 113.578 334.661 110.938 333.818C108.302 332.969 105.688 332.052 103.094 331.078C100.5 330.099 97.9323 329.062 95.3906 327.958C92.8438 326.859 90.3333 325.698 87.8438 324.474C85.3594 323.25 82.9063 321.964 80.4792 320.62C78.0573 319.276 75.6667 317.875 73.3125 316.417C70.9531 314.953 68.6354 313.437 66.3542 311.865C64.0729 310.292 61.8281 308.661 59.6302 306.979C57.4271 305.297 55.2656 303.562 53.1458 301.776C51.026 299.99 48.9531 298.151 46.9271 296.26C44.8958 294.37 42.9167 292.432 40.9792 290.448C39.0469 288.464 37.1615 286.432 35.3229 284.354C33.4896 282.276 31.7031 280.156 29.974 277.99C28.2396 275.828 26.5625 273.62 24.9375 271.375C23.3125 269.13 21.7396 266.844 20.2292 264.521C18.7135 262.198 17.2552 259.844 15.8594 257.448C14.4583 255.057 13.1198 252.63 11.8385 250.172C10.5573 247.708 9.33333 245.224 8.17188 242.703C7.01563 240.187 5.91667 237.641 4.88021 235.068C3.84375 232.495 2.86979 229.901 1.95833 227.281C1.6875 226.495 1.42187 225.698 1.15625 224.906L3.69271 223.802Z" fill="#AF2E2E"/>
</g>
</g>
</g>
<path d="M153.675 157.936C152.717 158.952 151.019 160.009 148.592 161.103C146.159 162.186 143.477 163.077 140.55 163.769C137.618 164.462 134.951 164.811 132.55 164.811C126.019 164.811 120.284 163.54 115.342 160.998C110.394 158.457 106.581 154.946 103.904 150.457C101.222 145.957 99.8834 140.832 99.8834 135.082C99.8834 127.873 101.305 121.769 104.154 116.769C106.998 111.769 110.826 108.03 115.633 105.54C120.435 103.056 125.743 101.811 131.55 101.811C135.284 101.811 138.8 102.238 142.092 103.082C145.394 103.915 148.305 105.009 150.821 106.353L146.883 117.644C145.258 116.759 143.034 115.936 140.217 115.186C137.394 114.425 135.034 114.04 133.133 114.04C126.435 114.04 121.31 115.722 117.758 119.082C114.217 122.431 112.446 127.394 112.446 133.978C112.446 137.785 113.31 141.097 115.05 143.915C116.784 146.738 119.201 148.905 122.3 150.415C125.394 151.915 128.925 152.665 132.883 152.665C136.685 152.665 139.508 152.139 141.342 151.082V143.623H130.717V131.894H153.675V157.936Z" fill="#E8E3E3"/>
<path d="M223.022 102.498V166.665H222.689L179.543 127.707L179.793 164.144H167.48V100.061H167.98L211.043 139.603L210.793 102.498H223.022Z" fill="#E8E3E3"/>
<path d="M162.789 175.149V239.316H150.643V209.92L130.539 238.482H130.372L111.018 211.753V239.316H99.2891V175.149H99.3724L130.622 219.461L162.622 175.149H162.789Z" fill="#E8E3E3"/>
<path d="M178.695 177.67H197.132C205.007 177.67 211.476 179.191 216.549 182.232C221.632 185.274 225.33 189.211 227.653 194.045C229.971 198.868 231.132 204.045 231.132 209.586C231.132 215.503 229.737 220.727 226.945 225.253C224.153 229.769 220.393 233.243 215.674 235.67C210.95 238.102 205.768 239.316 200.132 239.316H178.695V177.67ZM198.049 227.586C204.351 227.586 209.346 225.972 213.028 222.732C216.721 219.498 218.57 214.831 218.57 208.732C218.57 203.816 217.549 199.909 215.507 197.003C213.466 194.102 211.091 192.097 208.382 190.982C205.674 189.857 203.122 189.295 200.737 189.295H190.841V227.586H198.049Z" fill="#E8E3E3"/>
</svg>
