<svg
	xmlns="http://www.w3.org/2000/svg"
	xmlns:xlink="http://www.w3.org/1999/xlink" width="500" zoomAndPan="magnify" viewBox="0 0 375 374.999991" height="500" preserveAspectRatio="xMidYMid meet" version="1.0">
	<defs>
		<g/>
		<clipPath id="1db506089f">
			<path d="M 65 59 L 309 59 L 309 316 L 65 316 Z M 65 59 " clip-rule="nonzero"/>
		</clipPath>
		<clipPath id="9be6c84ac1">
			<path d="M 53.351562 55.511719 L 300.949219 37.515625 L 321.449219 319.519531 L 73.851562 337.519531 Z M 53.351562 55.511719 " clip-rule="nonzero"/>
		</clipPath>
		<clipPath id="08fe74a47e">
			<path d="M 53.351562 55.511719 L 300.949219 37.515625 L 321.449219 319.519531 L 73.851562 337.519531 Z M 53.351562 55.511719 " clip-rule="nonzero"/>
		</clipPath>
	</defs>
	<rect x="-37.5" width="450" fill="#ffffff" y="-37.499999" height="449.999989" fill-opacity="1"/>
	<rect x="-37.5" width="450" fill="#120B05" y="-37.499999" height="449.999989" fill-opacity="1"/>
	<g clip-path="url(#1db506089f)">
		<g clip-path="url(#9be6c84ac1)">
			<g clip-path="url(#08fe74a47e)">
				<path fill="#ffffff" d="M 147.261719 65.789062 C 149.230469 65.140625 151.214844 64.539062 153.210938 63.984375 C 155.210938 63.433594 157.222656 62.929688 159.242188 62.472656 C 161.265625 62.019531 163.300781 61.613281 165.339844 61.257812 C 167.382812 60.898438 169.433594 60.59375 171.492188 60.335938 C 173.546875 60.082031 175.609375 59.875 177.679688 59.71875 C 179.746094 59.5625 181.816406 59.457031 183.886719 59.398438 C 185.960938 59.34375 188.03125 59.339844 190.105469 59.382812 C 192.179688 59.429688 194.25 59.523438 196.316406 59.671875 C 198.386719 59.816406 200.449219 60.011719 202.507812 60.257812 C 204.566406 60.503906 206.617188 60.800781 208.660156 61.148438 C 210.707031 61.492188 212.742188 61.890625 214.765625 62.335938 C 216.789062 62.78125 218.804688 63.273438 220.804688 63.816406 C 222.804688 64.359375 224.792969 64.949219 226.765625 65.589844 C 228.738281 66.230469 230.695312 66.917969 232.632812 67.652344 C 234.570312 68.386719 236.492188 69.167969 238.394531 69.996094 C 240.292969 70.824219 242.175781 71.695312 244.03125 72.617188 C 245.890625 73.535156 247.726562 74.5 249.539062 75.507812 C 251.351562 76.515625 253.136719 77.570312 254.898438 78.664062 C 256.660156 79.761719 258.390625 80.898438 260.097656 82.078125 C 261.804688 83.257812 263.480469 84.476562 265.125 85.738281 C 266.773438 87 268.386719 88.300781 269.972656 89.640625 C 271.554688 90.980469 273.105469 92.359375 274.621094 93.773438 C 276.136719 95.1875 277.617188 96.640625 279.0625 98.128906 C 280.511719 99.613281 281.917969 101.136719 283.292969 102.691406 C 284.664062 104.246094 285.996094 105.835938 287.292969 107.457031 C 288.585938 109.078125 289.84375 110.726562 291.058594 112.410156 C 292.273438 114.089844 293.445312 115.800781 294.578125 117.539062 C 295.710938 119.277344 296.796875 121.042969 297.84375 122.835938 C 298.890625 124.628906 299.890625 126.441406 300.851562 128.285156 C 301.808594 130.125 302.722656 131.984375 303.589844 133.871094 C 304.457031 135.753906 305.277344 137.660156 306.054688 139.585938 C 306.828125 141.511719 307.554688 143.453125 308.238281 145.414062 C 308.488281 146.136719 308.738281 146.875 308.980469 147.625 L 307.082031 148.449219 C 306.824219 147.660156 306.558594 146.875 306.285156 146.085938 C 305.613281 144.144531 304.890625 142.21875 304.121094 140.3125 C 303.351562 138.40625 302.539062 136.515625 301.679688 134.648438 C 300.816406 132.78125 299.910156 130.9375 298.960938 129.113281 C 298.007812 127.289062 297.015625 125.492188 295.972656 123.71875 C 294.933594 121.941406 293.855469 120.195312 292.730469 118.472656 C 291.605469 116.75 290.4375 115.058594 289.230469 113.394531 C 288.023438 111.730469 286.777344 110.097656 285.488281 108.492188 C 284.203125 106.890625 282.875 105.320312 281.511719 103.78125 C 280.148438 102.242188 278.746094 100.738281 277.308594 99.269531 C 275.871094 97.800781 274.398438 96.367188 272.890625 94.96875 C 271.382812 93.570312 269.839844 92.210938 268.265625 90.890625 C 266.691406 89.570312 265.085938 88.285156 263.449219 87.042969 C 261.8125 85.800781 260.144531 84.597656 258.449219 83.433594 C 256.753906 82.273438 255.03125 81.15625 253.28125 80.078125 C 251.527344 79 249.753906 77.96875 247.953125 76.976562 C 246.152344 75.988281 244.328125 75.042969 242.480469 74.140625 C 240.632812 73.238281 238.761719 72.386719 236.875 71.578125 C 234.984375 70.765625 233.078125 70.003906 231.148438 69.289062 C 229.222656 68.574219 227.28125 67.90625 225.320312 67.285156 C 223.363281 66.664062 221.390625 66.09375 219.402344 65.570312 C 217.414062 65.046875 215.414062 64.570312 213.40625 64.144531 C 211.394531 63.71875 209.375 63.34375 207.347656 63.015625 C 205.316406 62.6875 203.28125 62.414062 201.238281 62.1875 C 199.199219 61.957031 197.152344 61.78125 195.101562 61.65625 C 193.050781 61.527344 190.996094 61.453125 188.941406 61.425781 C 186.886719 61.398438 184.832031 61.425781 182.777344 61.5 C 180.726562 61.574219 178.675781 61.699219 176.628906 61.871094 C 174.582031 62.046875 172.539062 62.273438 170.503906 62.546875 C 168.464844 62.824219 166.4375 63.148438 164.417969 63.523438 C 162.398438 63.898438 160.386719 64.320312 158.386719 64.792969 C 156.386719 65.265625 154.398438 65.789062 152.425781 66.359375 C 150.453125 66.929688 148.492188 67.546875 146.550781 68.214844 C 146.800781 67.410156 147.042969 66.609375 147.261719 65.792969 Z M 67.769531 226.851562 C 67.984375 227.5 68.195312 228.140625 68.421875 228.785156 C 69.097656 230.734375 69.820312 232.664062 70.589844 234.574219 C 71.363281 236.488281 72.179688 238.378906 73.042969 240.25 C 73.90625 242.125 74.816406 243.972656 75.769531 245.800781 C 76.722656 247.628906 77.722656 249.429688 78.765625 251.207031 C 79.808594 252.988281 80.894531 254.738281 82.023438 256.464844 C 83.152344 258.1875 84.320312 259.886719 85.53125 261.550781 C 86.746094 263.21875 87.996094 264.855469 89.289062 266.464844 C 90.582031 268.070312 91.910156 269.640625 93.28125 271.183594 C 94.648438 272.722656 96.054688 274.230469 97.5 275.703125 C 98.941406 277.171875 100.421875 278.609375 101.933594 280.007812 C 103.445312 281.40625 104.992188 282.769531 106.574219 284.089844 C 108.152344 285.414062 109.765625 286.695312 111.410156 287.941406 C 113.050781 289.183594 114.722656 290.386719 116.425781 291.550781 C 118.128906 292.710938 119.859375 293.832031 121.613281 294.90625 C 123.371094 295.984375 125.152344 297.015625 126.960938 298.007812 C 128.769531 298.996094 130.601562 299.941406 132.453125 300.839844 C 134.308594 301.738281 136.183594 302.589844 138.078125 303.398438 C 139.972656 304.207031 141.886719 304.964844 143.820312 305.679688 C 145.753906 306.390625 147.703125 307.058594 149.667969 307.675781 C 151.632812 308.292969 153.613281 308.863281 155.609375 309.382812 C 157.601562 309.902344 159.605469 310.371094 161.621094 310.792969 C 163.640625 311.214844 165.664062 311.589844 167.699219 311.910156 C 169.734375 312.234375 171.777344 312.503906 173.824219 312.726562 C 175.871094 312.949219 177.925781 313.121094 179.980469 313.242188 C 182.039062 313.363281 184.09375 313.433594 186.15625 313.453125 C 188.214844 313.472656 190.273438 313.441406 192.332031 313.359375 C 194.390625 313.28125 196.445312 313.148438 198.5 312.964844 C 200.550781 312.785156 202.597656 312.550781 204.636719 312.269531 C 206.675781 311.984375 208.710938 311.652344 210.734375 311.269531 C 212.757812 310.886719 214.773438 310.457031 216.773438 309.976562 C 218.777344 309.492188 220.769531 308.964844 222.746094 308.382812 C 224.722656 307.804688 226.683594 307.175781 228.628906 306.503906 C 228.367188 307.304688 228.113281 308.113281 227.882812 308.929688 C 225.914062 309.589844 223.925781 310.199219 221.925781 310.757812 C 219.925781 311.320312 217.910156 311.832031 215.886719 312.296875 C 213.859375 312.757812 211.824219 313.171875 209.777344 313.535156 C 207.734375 313.898438 205.679688 314.214844 203.617188 314.476562 C 201.558594 314.742188 199.492188 314.953125 197.417969 315.117188 C 195.347656 315.28125 193.273438 315.394531 191.195312 315.453125 C 189.117188 315.515625 187.042969 315.527344 184.964844 315.488281 C 182.886719 315.449219 180.808594 315.359375 178.738281 315.21875 C 176.664062 315.078125 174.59375 314.886719 172.53125 314.644531 C 170.46875 314.402344 168.410156 314.113281 166.359375 313.769531 C 164.3125 313.429688 162.269531 313.039062 160.238281 312.597656 C 158.207031 312.15625 156.191406 311.664062 154.183594 311.125 C 152.175781 310.585938 150.183594 309.996094 148.203125 309.363281 C 146.226562 308.726562 144.265625 308.039062 142.320312 307.308594 C 140.375 306.574219 138.449219 305.796875 136.542969 304.96875 C 134.632812 304.144531 132.75 303.273438 130.882812 302.355469 C 129.019531 301.4375 127.179688 300.472656 125.359375 299.464844 C 123.542969 298.457031 121.75 297.40625 119.984375 296.3125 C 118.214844 295.214844 116.476562 294.078125 114.765625 292.898438 C 113.054688 291.71875 111.371094 290.496094 109.722656 289.234375 C 108.070312 287.972656 106.449219 286.671875 104.859375 285.332031 C 103.269531 283.992188 101.714844 282.613281 100.195312 281.195312 C 98.671875 279.777344 97.1875 278.324219 95.734375 276.835938 C 94.285156 275.347656 92.871094 273.824219 91.492188 272.265625 C 90.117188 270.707031 88.777344 269.117188 87.480469 267.492188 C 86.179688 265.871094 84.921875 264.214844 83.703125 262.53125 C 82.484375 260.847656 81.304688 259.132812 80.171875 257.390625 C 79.035156 255.648438 77.941406 253.882812 76.894531 252.085938 C 75.84375 250.292969 74.839844 248.472656 73.878906 246.628906 C 72.917969 244.78125 72 242.917969 71.128906 241.027344 C 70.261719 239.140625 69.4375 237.230469 68.660156 235.300781 C 67.882812 233.371094 67.152344 231.425781 66.46875 229.460938 C 66.265625 228.871094 66.066406 228.273438 65.867188 227.679688 Z M 67.769531 226.851562 " fill-opacity="1" fill-rule="evenodd"/>
			</g>
		</g>
	</g>
	<g fill="#e8e3e3" fill-opacity="1">
		<g transform="translate(136.771916, 182.108151)">
			<g>
				<path d="M 43.484375 -4.65625 C 42.765625 -3.894531 41.492188 -3.101562 39.671875 -2.28125 C 37.847656 -1.46875 35.835938 -0.800781 33.640625 -0.28125 C 31.441406 0.238281 29.441406 0.5 27.640625 0.5 C 22.742188 0.5 18.441406 -0.453125 14.734375 -2.359375 C 11.023438 -4.265625 8.164062 -6.898438 6.15625 -10.265625 C 4.144531 -13.640625 3.140625 -17.484375 3.140625 -21.796875 C 3.140625 -27.203125 4.207031 -31.78125 6.34375 -35.53125 C 8.476562 -39.28125 11.347656 -42.085938 14.953125 -43.953125 C 18.554688 -45.816406 22.535156 -46.75 26.890625 -46.75 C 29.691406 -46.75 32.328125 -46.429688 34.796875 -45.796875 C 37.273438 -45.171875 39.457031 -44.351562 41.34375 -43.34375 L 38.390625 -34.875 C 37.171875 -35.539062 35.503906 -36.15625 33.390625 -36.71875 C 31.273438 -37.289062 29.503906 -37.578125 28.078125 -37.578125 C 23.054688 -37.578125 19.210938 -36.316406 16.546875 -33.796875 C 13.890625 -31.285156 12.5625 -27.5625 12.5625 -22.625 C 12.5625 -19.769531 13.210938 -17.285156 14.515625 -15.171875 C 15.816406 -13.054688 17.628906 -11.429688 19.953125 -10.296875 C 22.273438 -9.171875 24.921875 -8.609375 27.890625 -8.609375 C 30.742188 -8.609375 32.859375 -9.003906 34.234375 -9.796875 L 34.234375 -15.390625 L 26.265625 -15.390625 L 26.265625 -24.1875 L 43.484375 -24.1875 Z M 43.484375 -4.65625 "/>
			</g>
		</g>
	</g>
	<g fill="#e8e3e3" fill-opacity="1">
		<g transform="translate(184.641558, 182.108151)">
			<g>
				<path d="M 47.625 -46.234375 L 47.625 1.890625 L 47.375 1.890625 L 15.015625 -27.328125 L 15.203125 0 L 5.96875 0 L 5.96875 -48.0625 L 6.34375 -48.0625 L 38.640625 -18.40625 L 38.453125 -46.234375 Z M 47.625 -46.234375 "/>
			</g>
		</g>
	</g>
	<g fill="#e8e3e3" fill-opacity="1">
		<g transform="translate(133.498069, 238.486693)">
			<g>
				<path d="M 53.59375 -48.125 L 53.59375 0 L 44.484375 0 L 44.484375 -22.046875 L 29.40625 -0.625 L 29.28125 -0.625 L 14.765625 -20.671875 L 14.765625 0 L 5.96875 0 L 5.96875 -48.125 L 6.03125 -48.125 L 29.46875 -14.890625 L 53.46875 -48.125 Z M 53.59375 -48.125 "/>
			</g>
		</g>
	</g>
	<g fill="#e8e3e3" fill-opacity="1">
		<g transform="translate(193.052427, 238.486693)">
			<g>
				<path d="M 5.96875 -46.234375 L 19.796875 -46.234375 C 25.703125 -46.234375 30.554688 -45.09375 34.359375 -42.8125 C 38.171875 -40.53125 40.945312 -37.578125 42.6875 -33.953125 C 44.425781 -30.335938 45.296875 -26.453125 45.296875 -22.296875 C 45.296875 -17.859375 44.25 -13.941406 42.15625 -10.546875 C 40.0625 -7.160156 37.242188 -4.554688 33.703125 -2.734375 C 30.160156 -0.910156 26.273438 0 22.046875 0 L 5.96875 0 Z M 20.484375 -8.796875 C 25.210938 -8.796875 28.957031 -10.007812 31.71875 -12.4375 C 34.488281 -14.863281 35.875 -18.363281 35.875 -22.9375 C 35.875 -26.625 35.109375 -29.554688 33.578125 -31.734375 C 32.046875 -33.910156 30.265625 -35.414062 28.234375 -36.25 C 26.203125 -37.09375 24.289062 -37.515625 22.5 -37.515625 L 15.078125 -37.515625 L 15.078125 -8.796875 Z M 20.484375 -8.796875 "/>
			</g>
		</g>
	</g>
</svg>